<svg width="257" height="63" viewBox="0 0 257 63" fill="none" xmlns="http://www.w3.org/2000/svg">
<rect width="257" height="63" rx="10" fill="#F5F5F5"/>
<path d="M175.725 48H193.525V43.24H187.965V18.4H183.605C181.725 19.56 179.685 20.32 176.725 20.88V24.52H182.085V43.24H175.725V48ZM203.76 48.56C209.76 48.56 213.72 45.12 213.72 40.64C213.72 36.6 211.48 34.2 208.76 32.72V32.52C210.72 31.12 212.56 28.68 212.56 25.76C212.56 21.04 209.2 17.88 203.96 17.88C198.8 17.88 195.04 20.92 195.04 25.68C195.04 28.84 196.68 31.08 198.96 32.72V32.92C196.2 34.4 193.88 36.84 193.88 40.64C193.88 45.28 198.12 48.56 203.76 48.56ZM205.64 31.08C202.52 29.84 200.24 28.48 200.24 25.68C200.24 23.32 201.84 22 203.84 22C206.32 22 207.76 23.72 207.76 26.12C207.76 27.88 207.08 29.56 205.64 31.08ZM203.92 44.4C201.16 44.4 198.96 42.68 198.96 40C198.96 37.8 200.08 35.8 201.68 34.52C205.52 36.08 208.24 37.36 208.24 40.44C208.24 43 206.4 44.4 203.92 44.4Z" fill="#556080"/>
<path d="M29.6 39H26.738L20.654 28.92H20.582C20.618 29.46 20.648 30.042 20.672 30.666C20.708 31.278 20.732 31.896 20.744 32.52V39H18.674V26.148H21.518L27.584 36.156H27.638C27.614 35.676 27.59 35.124 27.566 34.5C27.542 33.876 27.524 33.27 27.512 32.682V26.148H29.6V39ZM35.2154 29.064C36.5234 29.064 37.5554 29.454 38.3114 30.234C39.0794 31.014 39.4634 32.1 39.4634 33.492V34.644H33.0194C33.0434 35.532 33.2894 36.222 33.7574 36.714C34.2254 37.194 34.8734 37.434 35.7014 37.434C36.3254 37.434 36.8894 37.374 37.3934 37.254C37.8974 37.122 38.4134 36.936 38.9414 36.696V38.514C38.4614 38.742 37.9634 38.91 37.4474 39.018C36.9314 39.126 36.3134 39.18 35.5934 39.18C34.6454 39.18 33.7994 39 33.0554 38.64C32.3234 38.268 31.7474 37.71 31.3274 36.966C30.9194 36.222 30.7154 35.298 30.7154 34.194C30.7154 32.526 31.1294 31.254 31.9574 30.378C32.7854 29.502 33.8714 29.064 35.2154 29.064ZM35.2154 30.738C34.6034 30.738 34.1054 30.936 33.7214 31.332C33.3494 31.716 33.1334 32.292 33.0734 33.06H37.2674C37.2554 32.388 37.0814 31.836 36.7454 31.404C36.4214 30.96 35.9114 30.738 35.2154 30.738ZM44.2344 29.064C45.5424 29.064 46.5744 29.454 47.3304 30.234C48.0984 31.014 48.4824 32.1 48.4824 33.492V34.644H42.0384C42.0624 35.532 42.3084 36.222 42.7764 36.714C43.2444 37.194 43.8924 37.434 44.7204 37.434C45.3444 37.434 45.9084 37.374 46.4124 37.254C46.9164 37.122 47.4324 36.936 47.9604 36.696V38.514C47.4804 38.742 46.9824 38.91 46.4664 39.018C45.9504 39.126 45.3324 39.18 44.6124 39.18C43.6644 39.18 42.8184 39 42.0744 38.64C41.3424 38.268 40.7664 37.71 40.3464 36.966C39.9384 36.222 39.7344 35.298 39.7344 34.194C39.7344 32.526 40.1484 31.254 40.9764 30.378C41.8044 29.502 42.8904 29.064 44.2344 29.064ZM44.2344 30.738C43.6224 30.738 43.1244 30.936 42.7404 31.332C42.3684 31.716 42.1524 32.292 42.0924 33.06H46.2864C46.2744 32.388 46.1004 31.836 45.7644 31.404C45.4404 30.96 44.9304 30.738 44.2344 30.738ZM52.5514 39.18C51.4114 39.18 50.4934 38.754 49.7974 37.902C49.1014 37.05 48.7534 35.796 48.7534 34.14C48.7534 32.46 49.1074 31.194 49.8154 30.342C50.5234 29.49 51.4534 29.064 52.6054 29.064C53.3254 29.064 53.9134 29.202 54.3694 29.478C54.8374 29.754 55.2094 30.09 55.4854 30.486H55.5934C55.5574 30.318 55.5214 30.06 55.4854 29.712C55.4494 29.364 55.4314 29.04 55.4314 28.74V25.32H57.6994V39H55.9354L55.5214 37.722H55.4314C55.1554 38.13 54.7894 38.478 54.3334 38.766C53.8774 39.042 53.2834 39.18 52.5514 39.18ZM53.2354 37.344C54.0754 37.344 54.6634 37.104 54.9994 36.624C55.3474 36.144 55.5274 35.418 55.5394 34.446V34.158C55.5394 33.114 55.3714 32.316 55.0354 31.764C54.7114 31.2 54.0994 30.918 53.1994 30.918C52.5034 30.918 51.9694 31.206 51.5974 31.782C51.2374 32.346 51.0574 33.144 51.0574 34.176C51.0574 35.208 51.2434 35.994 51.6154 36.534C51.9874 37.074 52.5274 37.344 53.2354 37.344ZM63.081 29.064C64.389 29.064 65.421 29.454 66.177 30.234C66.945 31.014 67.329 32.1 67.329 33.492V34.644H60.885C60.909 35.532 61.155 36.222 61.623 36.714C62.091 37.194 62.739 37.434 63.567 37.434C64.191 37.434 64.755 37.374 65.259 37.254C65.763 37.122 66.279 36.936 66.807 36.696V38.514C66.327 38.742 65.829 38.91 65.313 39.018C64.797 39.126 64.179 39.18 63.459 39.18C62.511 39.18 61.665 39 60.921 38.64C60.189 38.268 59.613 37.71 59.193 36.966C58.785 36.222 58.581 35.298 58.581 34.194C58.581 32.526 58.995 31.254 59.823 30.378C60.651 29.502 61.737 29.064 63.081 29.064ZM63.081 30.738C62.469 30.738 61.971 30.936 61.587 31.332C61.215 31.716 60.999 32.292 60.939 33.06H65.133C65.121 32.388 64.947 31.836 64.611 31.404C64.287 30.96 63.777 30.738 63.081 30.738ZM71.398 39.18C70.258 39.18 69.34 38.754 68.644 37.902C67.948 37.05 67.6 35.796 67.6 34.14C67.6 32.46 67.954 31.194 68.662 30.342C69.37 29.49 70.3 29.064 71.452 29.064C72.172 29.064 72.76 29.202 73.216 29.478C73.684 29.754 74.056 30.09 74.332 30.486H74.44C74.404 30.318 74.368 30.06 74.332 29.712C74.296 29.364 74.278 29.04 74.278 28.74V25.32H76.546V39H74.782L74.368 37.722H74.278C74.002 38.13 73.636 38.478 73.18 38.766C72.724 39.042 72.13 39.18 71.398 39.18ZM72.082 37.344C72.922 37.344 73.51 37.104 73.846 36.624C74.194 36.144 74.374 35.418 74.386 34.446V34.158C74.386 33.114 74.218 32.316 73.882 31.764C73.558 31.2 72.946 30.918 72.046 30.918C71.35 30.918 70.816 31.206 70.444 31.782C70.084 32.346 69.904 33.144 69.904 34.176C69.904 35.208 70.09 35.994 70.462 36.534C70.834 37.074 71.374 37.344 72.082 37.344ZM86.0633 39H83.7593V28.092H80.0693V26.148H89.7533V28.092H86.0633V39ZM91.1989 25.482C91.5469 25.482 91.8409 25.572 92.0809 25.752C92.3329 25.92 92.4589 26.226 92.4589 26.67C92.4589 27.114 92.3329 27.426 92.0809 27.606C91.8409 27.786 91.5469 27.876 91.1989 27.876C90.8509 27.876 90.5509 27.786 90.2989 27.606C90.0589 27.426 89.9389 27.114 89.9389 26.67C89.9389 26.226 90.0589 25.92 90.2989 25.752C90.5509 25.572 90.8509 25.482 91.1989 25.482ZM92.3329 29.244V39H90.0649V29.244H92.3329ZM104.971 29.064C106.075 29.064 106.903 29.346 107.455 29.91C108.019 30.474 108.301 31.386 108.301 32.646V39H106.033V33.078C106.033 31.626 105.481 30.9 104.377 30.9C103.585 30.9 103.021 31.158 102.685 31.674C102.349 32.19 102.181 32.94 102.181 33.924V39H99.9129V33.078C99.9129 31.626 99.3549 30.9 98.2389 30.9C97.4109 30.9 96.8409 31.188 96.5289 31.764C96.2169 32.34 96.0609 33.162 96.0609 34.23V39H93.7929V29.244H95.5389L95.8629 30.522H95.9889C96.2769 30.018 96.6789 29.652 97.1949 29.424C97.7229 29.184 98.2689 29.064 98.8329 29.064C99.5649 29.064 100.177 29.19 100.669 29.442C101.173 29.682 101.557 30.06 101.821 30.576H102.001C102.301 30.048 102.721 29.664 103.261 29.424C103.801 29.184 104.371 29.064 104.971 29.064ZM113.627 29.064C114.935 29.064 115.967 29.454 116.723 30.234C117.491 31.014 117.875 32.1 117.875 33.492V34.644H111.431C111.455 35.532 111.701 36.222 112.169 36.714C112.637 37.194 113.285 37.434 114.113 37.434C114.737 37.434 115.301 37.374 115.805 37.254C116.309 37.122 116.825 36.936 117.353 36.696V38.514C116.873 38.742 116.375 38.91 115.859 39.018C115.343 39.126 114.725 39.18 114.005 39.18C113.057 39.18 112.211 39 111.467 38.64C110.735 38.268 110.159 37.71 109.739 36.966C109.331 36.222 109.127 35.298 109.127 34.194C109.127 32.526 109.541 31.254 110.369 30.378C111.197 29.502 112.283 29.064 113.627 29.064ZM113.627 30.738C113.015 30.738 112.517 30.936 112.133 31.332C111.761 31.716 111.545 32.292 111.485 33.06H115.679C115.667 32.388 115.493 31.836 115.157 31.404C114.833 30.96 114.323 30.738 113.627 30.738Z" fill="black"/>
</svg>
