<svg width="257" height="63" viewBox="0 0 257 63" fill="none" xmlns="http://www.w3.org/2000/svg">
<rect width="257" height="63" rx="10" fill="#F5F5F5"/>
<path d="M211.183 48.56C216.823 48.56 221.583 45.4 221.583 39.96C221.583 36.08 219.023 33.6 215.663 32.68V32.48C218.823 31.24 220.623 28.92 220.623 25.72C220.623 20.64 216.743 17.84 211.023 17.84C207.543 17.84 204.703 19.24 202.143 21.48L205.143 25.08C206.903 23.48 208.623 22.48 210.743 22.44C213.263 22.48 214.703 23.84 214.703 26.16C214.703 28.8 212.943 30.68 207.503 30.68V34.92C213.943 34.92 215.663 36.72 215.663 39.64C215.663 42.28 213.623 43.76 210.623 43.76C207.943 43.76 205.783 42.44 204.023 40.72L201.263 44.44C203.343 46.8 206.503 48.56 211.183 48.56Z" fill="#556080"/>
<path d="M29.6 39H26.738L20.654 28.92H20.582C20.618 29.46 20.648 30.042 20.672 30.666C20.708 31.278 20.732 31.896 20.744 32.52V39H18.674V26.148H21.518L27.584 36.156H27.638C27.614 35.676 27.59 35.124 27.566 34.5C27.542 33.876 27.524 33.27 27.512 32.682V26.148H29.6V39ZM39.9494 29.244V39H38.1674L37.8614 37.74H37.7534C37.4294 38.244 36.9914 38.61 36.4394 38.838C35.8994 39.066 35.3234 39.18 34.7114 39.18C33.6194 39.18 32.7614 38.898 32.1374 38.334C31.5254 37.77 31.2194 36.864 31.2194 35.616V29.244H33.4874V35.166C33.4874 36.618 34.0874 37.344 35.2874 37.344C36.1994 37.344 36.8234 37.062 37.1594 36.498C37.5074 35.922 37.6814 35.094 37.6814 34.014V29.244H39.9494ZM52.5783 29.064C53.6823 29.064 54.5103 29.346 55.0623 29.91C55.6263 30.474 55.9083 31.386 55.9083 32.646V39H53.6403V33.078C53.6403 31.626 53.0883 30.9 51.9843 30.9C51.1923 30.9 50.6283 31.158 50.2923 31.674C49.9563 32.19 49.7883 32.94 49.7883 33.924V39H47.5203V33.078C47.5203 31.626 46.9623 30.9 45.8463 30.9C45.0183 30.9 44.4483 31.188 44.1363 31.764C43.8243 32.34 43.6683 33.162 43.6683 34.23V39H41.4003V29.244H43.1463L43.4703 30.522H43.5963C43.8843 30.018 44.2863 29.652 44.8023 29.424C45.3303 29.184 45.8763 29.064 46.4403 29.064C47.1723 29.064 47.7843 29.19 48.2763 29.442C48.7803 29.682 49.1643 30.06 49.4283 30.576H49.6083C49.9083 30.048 50.3283 29.664 50.8683 29.424C51.4083 29.184 51.9783 29.064 52.5783 29.064ZM59.5779 28.56C59.5779 28.944 59.5659 29.316 59.5419 29.676C59.5179 30.036 59.4939 30.318 59.4699 30.522H59.5779C59.8419 30.114 60.2019 29.772 60.6579 29.496C61.1139 29.208 61.7079 29.064 62.4399 29.064C63.5679 29.064 64.4799 29.49 65.1759 30.342C65.8839 31.194 66.2379 32.448 66.2379 34.104C66.2379 35.784 65.8839 37.05 65.1759 37.902C64.4679 38.754 63.5379 39.18 62.3859 39.18C61.6539 39.18 61.0659 39.048 60.6219 38.784C60.1899 38.52 59.8419 38.214 59.5779 37.866H59.4159L59.0019 39H57.3099V25.32H59.5779V28.56ZM61.7919 30.9C60.9759 30.9 60.4059 31.146 60.0819 31.638C59.7579 32.13 59.5899 32.886 59.5779 33.906V34.104C59.5779 35.148 59.7339 35.946 60.0459 36.498C60.3699 37.05 60.9639 37.326 61.8279 37.326C62.4999 37.326 63.0159 37.05 63.3759 36.498C63.7359 35.934 63.9159 35.13 63.9159 34.086C63.9159 33.018 63.7299 32.22 63.3579 31.692C62.9979 31.164 62.4759 30.9 61.7919 30.9ZM71.0615 29.064C72.3695 29.064 73.4015 29.454 74.1575 30.234C74.9255 31.014 75.3095 32.1 75.3095 33.492V34.644H68.8655C68.8895 35.532 69.1355 36.222 69.6035 36.714C70.0715 37.194 70.7195 37.434 71.5475 37.434C72.1715 37.434 72.7355 37.374 73.2395 37.254C73.7435 37.122 74.2595 36.936 74.7875 36.696V38.514C74.3075 38.742 73.8095 38.91 73.2935 39.018C72.7775 39.126 72.1595 39.18 71.4395 39.18C70.4915 39.18 69.6455 39 68.9015 38.64C68.1695 38.268 67.5935 37.71 67.1735 36.966C66.7655 36.222 66.5615 35.298 66.5615 34.194C66.5615 32.526 66.9755 31.254 67.8035 30.378C68.6315 29.502 69.7175 29.064 71.0615 29.064ZM71.0615 30.738C70.4495 30.738 69.9515 30.936 69.5675 31.332C69.1955 31.716 68.9795 32.292 68.9195 33.06H73.1135C73.1015 32.388 72.9275 31.836 72.5915 31.404C72.2675 30.96 71.7575 30.738 71.0615 30.738ZM81.2684 29.064C81.4244 29.064 81.5924 29.07 81.7724 29.082C81.9644 29.094 82.1264 29.118 82.2584 29.154L82.0604 31.26C81.9404 31.236 81.7964 31.218 81.6284 31.206C81.4604 31.182 81.3104 31.17 81.1784 31.17C80.6984 31.17 80.2484 31.272 79.8284 31.476C79.4084 31.668 79.0664 31.974 78.8024 32.394C78.5504 32.802 78.4244 33.318 78.4244 33.942V39H76.1564V29.244H77.9024L78.2264 30.936H78.3344C78.6224 30.42 79.0184 29.982 79.5224 29.622C80.0264 29.25 80.6084 29.064 81.2684 29.064ZM94.5744 34.104C94.5744 35.724 94.1544 36.978 93.3144 37.866C92.4744 38.742 91.3344 39.18 89.8944 39.18C89.0064 39.18 88.2144 38.982 87.5184 38.586C86.8224 38.19 86.2764 37.614 85.8804 36.858C85.4844 36.102 85.2864 35.184 85.2864 34.104C85.2864 32.484 85.7004 31.242 86.5284 30.378C87.3684 29.502 88.5084 29.064 89.9484 29.064C90.8484 29.064 91.6464 29.262 92.3424 29.658C93.0384 30.042 93.5844 30.612 93.9804 31.368C94.3764 32.112 94.5744 33.024 94.5744 34.104ZM87.6084 34.104C87.6084 35.136 87.7884 35.934 88.1484 36.498C88.5204 37.062 89.1144 37.344 89.9304 37.344C90.7464 37.344 91.3344 37.062 91.6944 36.498C92.0664 35.934 92.2524 35.136 92.2524 34.104C92.2524 33.072 92.0664 32.28 91.6944 31.728C91.3344 31.176 90.7404 30.9 89.9124 30.9C89.1084 30.9 88.5204 31.176 88.1484 31.728C87.7884 32.28 87.6084 33.072 87.6084 34.104ZM100.537 30.954H98.179V39H95.911V30.954H94.345V29.874L95.911 29.226V28.56C95.911 27.312 96.205 26.448 96.793 25.968C97.393 25.476 98.209 25.23 99.241 25.23C99.709 25.23 100.135 25.272 100.519 25.356C100.915 25.428 101.239 25.512 101.491 25.608L100.915 27.3C100.711 27.24 100.483 27.186 100.231 27.138C99.991 27.078 99.727 27.048 99.439 27.048C99.007 27.048 98.689 27.186 98.485 27.462C98.281 27.726 98.179 28.11 98.179 28.614V29.244H100.537V30.954ZM109.642 27.912C108.466 27.912 107.554 28.332 106.906 29.172C106.27 30.012 105.952 31.152 105.952 32.592C105.952 34.044 106.252 35.184 106.852 36.012C107.452 36.828 108.376 37.236 109.624 37.236C110.164 37.236 110.692 37.182 111.208 37.074C111.724 36.954 112.264 36.798 112.828 36.606V38.568C112.3 38.784 111.766 38.94 111.226 39.036C110.698 39.132 110.086 39.18 109.39 39.18C108.07 39.18 106.978 38.91 106.114 38.37C105.25 37.818 104.608 37.05 104.188 36.066C103.768 35.07 103.558 33.906 103.558 32.574C103.558 31.278 103.792 30.138 104.26 29.154C104.728 28.158 105.412 27.378 106.312 26.814C107.224 26.25 108.334 25.968 109.642 25.968C110.29 25.968 110.926 26.046 111.55 26.202C112.186 26.346 112.78 26.55 113.332 26.814L112.54 28.704C112.084 28.5 111.61 28.32 111.118 28.164C110.638 27.996 110.146 27.912 109.642 27.912ZM122.652 34.104C122.652 35.724 122.232 36.978 121.392 37.866C120.552 38.742 119.412 39.18 117.972 39.18C117.084 39.18 116.292 38.982 115.596 38.586C114.9 38.19 114.354 37.614 113.958 36.858C113.562 36.102 113.364 35.184 113.364 34.104C113.364 32.484 113.778 31.242 114.606 30.378C115.446 29.502 116.586 29.064 118.026 29.064C118.926 29.064 119.724 29.262 120.42 29.658C121.116 30.042 121.662 30.612 122.058 31.368C122.454 32.112 122.652 33.024 122.652 34.104ZM115.686 34.104C115.686 35.136 115.866 35.934 116.226 36.498C116.598 37.062 117.192 37.344 118.008 37.344C118.824 37.344 119.412 37.062 119.772 36.498C120.144 35.934 120.33 35.136 120.33 34.104C120.33 33.072 120.144 32.28 119.772 31.728C119.412 31.176 118.818 30.9 117.99 30.9C117.186 30.9 116.598 31.176 116.226 31.728C115.866 32.28 115.686 33.072 115.686 34.104ZM128.777 29.064C129.869 29.064 130.721 29.346 131.333 29.91C131.957 30.474 132.269 31.386 132.269 32.646V39H130.001V33.096C130.001 31.632 129.401 30.9 128.201 30.9C127.289 30.9 126.665 31.188 126.329 31.764C125.993 32.34 125.825 33.162 125.825 34.23V39H123.557V29.244H125.303L125.627 30.522H125.753C126.065 30.018 126.491 29.652 127.031 29.424C127.583 29.184 128.165 29.064 128.777 29.064ZM137.446 37.362C137.722 37.362 137.992 37.338 138.256 37.29C138.532 37.23 138.784 37.164 139.012 37.092V38.784C138.772 38.892 138.46 38.982 138.076 39.054C137.692 39.138 137.29 39.18 136.87 39.18C136.318 39.18 135.814 39.09 135.358 38.91C134.902 38.718 134.542 38.394 134.278 37.938C134.014 37.482 133.882 36.846 133.882 36.03V30.954H132.568V29.964L134.008 29.172L134.728 27.102H136.15V29.244H138.922V30.954H136.15V36.012C136.15 36.468 136.27 36.81 136.51 37.038C136.75 37.254 137.062 37.362 137.446 37.362ZM143.462 29.064C144.77 29.064 145.802 29.454 146.558 30.234C147.326 31.014 147.71 32.1 147.71 33.492V34.644H141.266C141.29 35.532 141.536 36.222 142.004 36.714C142.472 37.194 143.12 37.434 143.948 37.434C144.572 37.434 145.136 37.374 145.64 37.254C146.144 37.122 146.66 36.936 147.188 36.696V38.514C146.708 38.742 146.21 38.91 145.694 39.018C145.178 39.126 144.56 39.18 143.84 39.18C142.892 39.18 142.046 39 141.302 38.64C140.57 38.268 139.994 37.71 139.574 36.966C139.166 36.222 138.962 35.298 138.962 34.194C138.962 32.526 139.376 31.254 140.204 30.378C141.032 29.502 142.118 29.064 143.462 29.064ZM143.462 30.738C142.85 30.738 142.352 30.936 141.968 31.332C141.596 31.716 141.38 32.292 141.32 33.06H145.514C145.502 32.388 145.328 31.836 144.992 31.404C144.668 30.96 144.158 30.738 143.462 30.738ZM155.199 36.174C155.199 37.158 154.845 37.908 154.137 38.424C153.441 38.928 152.439 39.18 151.131 39.18C150.447 39.18 149.859 39.132 149.367 39.036C148.887 38.94 148.419 38.79 147.963 38.586V36.66C148.443 36.888 148.971 37.08 149.547 37.236C150.135 37.392 150.687 37.47 151.203 37.47C151.827 37.47 152.277 37.374 152.553 37.182C152.829 36.99 152.967 36.732 152.967 36.408C152.967 36.216 152.913 36.048 152.805 35.904C152.697 35.748 152.481 35.58 152.157 35.4C151.845 35.22 151.377 34.998 150.753 34.734C150.129 34.494 149.607 34.248 149.187 33.996C148.779 33.732 148.467 33.426 148.251 33.078C148.047 32.73 147.945 32.28 147.945 31.728C147.945 30.852 148.287 30.192 148.971 29.748C149.667 29.292 150.591 29.064 151.743 29.064C152.343 29.064 152.907 29.124 153.435 29.244C153.975 29.364 154.515 29.544 155.055 29.784L154.335 31.458C153.879 31.266 153.435 31.104 153.003 30.972C152.571 30.84 152.127 30.774 151.671 30.774C150.675 30.774 150.177 31.056 150.177 31.62C150.177 31.824 150.237 31.998 150.357 32.142C150.489 32.286 150.711 32.442 151.023 32.61C151.347 32.766 151.803 32.958 152.391 33.186C152.967 33.414 153.465 33.654 153.885 33.906C154.305 34.146 154.629 34.446 154.857 34.806C155.085 35.166 155.199 35.622 155.199 36.174ZM159.721 37.362C159.997 37.362 160.267 37.338 160.531 37.29C160.807 37.23 161.059 37.164 161.287 37.092V38.784C161.047 38.892 160.735 38.982 160.351 39.054C159.967 39.138 159.565 39.18 159.145 39.18C158.593 39.18 158.089 39.09 157.633 38.91C157.177 38.718 156.817 38.394 156.553 37.938C156.289 37.482 156.157 36.846 156.157 36.03V30.954H154.843V29.964L156.283 29.172L157.003 27.102H158.425V29.244H161.197V30.954H158.425V36.012C158.425 36.468 158.545 36.81 158.785 37.038C159.025 37.254 159.337 37.362 159.721 37.362ZM168.456 36.174C168.456 37.158 168.102 37.908 167.394 38.424C166.698 38.928 165.696 39.18 164.388 39.18C163.704 39.18 163.116 39.132 162.624 39.036C162.144 38.94 161.676 38.79 161.22 38.586V36.66C161.7 36.888 162.228 37.08 162.804 37.236C163.392 37.392 163.944 37.47 164.46 37.47C165.084 37.47 165.534 37.374 165.81 37.182C166.086 36.99 166.224 36.732 166.224 36.408C166.224 36.216 166.17 36.048 166.062 35.904C165.954 35.748 165.738 35.58 165.414 35.4C165.102 35.22 164.634 34.998 164.01 34.734C163.386 34.494 162.864 34.248 162.444 33.996C162.036 33.732 161.724 33.426 161.508 33.078C161.304 32.73 161.202 32.28 161.202 31.728C161.202 30.852 161.544 30.192 162.228 29.748C162.924 29.292 163.848 29.064 165 29.064C165.6 29.064 166.164 29.124 166.692 29.244C167.232 29.364 167.772 29.544 168.312 29.784L167.592 31.458C167.136 31.266 166.692 31.104 166.26 30.972C165.828 30.84 165.384 30.774 164.928 30.774C163.932 30.774 163.434 31.056 163.434 31.62C163.434 31.824 163.494 31.998 163.614 32.142C163.746 32.286 163.968 32.442 164.28 32.61C164.604 32.766 165.06 32.958 165.648 33.186C166.224 33.414 166.722 33.654 167.142 33.906C167.562 34.146 167.886 34.446 168.114 34.806C168.342 35.166 168.456 35.622 168.456 36.174Z" fill="black"/>
</svg>
